<svg width="24" height="21" viewBox="0 0 24 21" fill="none" xmlns="http://www.w3.org/2000/svg">
<path d="M21.2459 2.61183C20.7332 2.10083 20.1244 1.69547 19.4544 1.41891C18.7843 1.14235 18.0662 1 17.3409 1C16.6156 1 15.8974 1.14235 15.2274 1.41891C14.5573 1.69547 13.9485 2.10083 13.4358 2.61183L12.3717 3.67183L11.3076 2.61183C10.2719 1.58013 8.86718 1.00053 7.4025 1.00053C5.93781 1.00053 4.53311 1.58013 3.49742 2.61183C2.46173 3.64352 1.87988 5.04279 1.87988 6.50183C1.87988 7.96086 2.46173 9.36013 3.49742 10.3918L12.3717 19.2318L21.2459 10.3918C21.7589 9.88107 22.1658 9.27464 22.4435 8.60718C22.7211 7.93972 22.864 7.22431 22.864 6.50183C22.864 5.77934 22.7211 5.06393 22.4435 4.39647C22.1658 3.72901 21.7589 3.12258 21.2459 2.61183Z" stroke="#EC3944" stroke-width="2" stroke-linecap="round" stroke-linejoin="round"/>
</svg>
