<svg id="quickhire" xmlns="http://www.w3.org/2000/svg" width="48.295" height="53" viewBox="0 0 48.295 53">
  <path id="Caminho_1" data-name="Caminho 1" d="M22.5,27l24-12L24,0,0,13.5Z" fill="#444"/>
  <path id="Caminho_2" data-name="Caminho 2" d="M0,13.5v27L23.5,53l-1-26Z" fill="#444"/>
  <path id="Caminho_3" data-name="Caminho 3" d="M48,40.5,46.5,15l-24,12,1,26Z" fill="#444"/>
  <path id="Caminho_4" data-name="Caminho 4" d="M48,40.5,46.5,15l-24,12,1,26Z" fill="#585454"/>
  <path id="Caminho_5" data-name="Caminho 5" d="M22.5,27l24-12L24,0,0,13.5Z" fill="#585454"/>
  <path id="Caminho_6" data-name="Caminho 6" d="M48,40.5,46.5,15l-24,12,1,26Z" fill="#646363"/>
  <path id="Caminho_7" data-name="Caminho 7" d="M33.588,26.585a11.293,11.293,0,0,1-.366,2.886,11.549,11.549,0,0,1-1.011,2.607,11.812,11.812,0,0,1-1.582,2.271,10.96,10.96,0,0,1-2.021,1.787,7.543,7.543,0,0,0,.513,1.289,4.843,4.843,0,0,0,.747,1.069,3.423,3.423,0,0,0,.967.733,2.52,2.52,0,0,0,1.143.264,2.128,2.128,0,0,0,.542-.073,1.555,1.555,0,0,0,.527-.22.519.519,0,0,1,.19-.1.863.863,0,0,1,.205-.029.78.78,0,0,1,.527.205.71.71,0,0,1,.249.557.748.748,0,0,1-.352.659,3.809,3.809,0,0,1-.908.41,3.369,3.369,0,0,1-.981.146,3.885,3.885,0,0,1-1.582-.322,4.784,4.784,0,0,1-1.333-.879,6.248,6.248,0,0,1-1.069-1.318,8.718,8.718,0,0,1-.762-1.611,10.352,10.352,0,0,1-2.065.718,9.025,9.025,0,0,1-2.2.264,9.7,9.7,0,0,1-2.812-.41,10.092,10.092,0,0,1-2.52-1.128A11.023,11.023,0,0,1,13.827,32.3a11.967,11.967,0,0,1-1.069-2.71,11.886,11.886,0,0,1,1.069-8.7A11.018,11.018,0,0,1,15.482,18.6a10.893,10.893,0,0,1,2.153-1.773,10.015,10.015,0,0,1,5.332-1.553,9.533,9.533,0,0,1,2.915.439,10.152,10.152,0,0,1,2.564,1.216,10.7,10.7,0,0,1,2.139,1.846A11.532,11.532,0,0,1,32.2,21.106a11.654,11.654,0,0,1,1.025,2.651A11.065,11.065,0,0,1,33.588,26.585Zm-1.523,0A8.8,8.8,0,0,0,31.8,24.5a11.345,11.345,0,0,0-.747-2.139,11.191,11.191,0,0,0-1.143-1.992,8.921,8.921,0,0,0-1.465-1.655,6.517,6.517,0,0,0-1.7-1.128,4.347,4.347,0,0,0-1.86-.425,6.736,6.736,0,0,0-2.329.381,6.53,6.53,0,0,0-1.86,1.04,6.84,6.84,0,0,0-1.406,1.538,9.661,9.661,0,0,0-1,1.919,11.521,11.521,0,0,0-.571,2.124,12.764,12.764,0,0,0-.19,2.183,21.47,21.47,0,0,0,.132,2.373,14.352,14.352,0,0,0,.469,2.285,11.45,11.45,0,0,0,.85,2.036,6.653,6.653,0,0,0,1.289,1.641,5.727,5.727,0,0,0,1.772,1.084,6.435,6.435,0,0,0,2.329.4A5.009,5.009,0,0,0,25.648,36a6.8,6.8,0,0,0,1.216-.469,3.708,3.708,0,0,0-1.011-1.7,2.483,2.483,0,0,0-1.714-.586,3.436,3.436,0,0,0-.645.059q-.293.059-.542.132a4.2,4.2,0,0,0-.527.176.729.729,0,0,1-.322.088.787.787,0,0,1-.527-.22.755.755,0,0,1-.249-.571.744.744,0,0,1,.117-.4.78.78,0,0,1,.322-.293,1.336,1.336,0,0,1,.205-.088,4.132,4.132,0,0,1,.527-.176q.322-.088.747-.161a5.257,5.257,0,0,1,.894-.073,3.944,3.944,0,0,1,2.476.776A4.935,4.935,0,0,1,28.2,34.686a9.569,9.569,0,0,0,1.553-1.641,11.4,11.4,0,0,0,1.23-2.007,11.28,11.28,0,0,0,.791-2.212A9,9,0,0,0,32.064,26.585Z" fill="#fff"/>
  <path id="Caminho_8" data-name="Caminho 8" d="M22.795,27l24-12L24.295,0l-24,13.5Z" fill="#ec3944"/>
  <path id="Caminho_9" data-name="Caminho 9" d="M.295,13.5v27L23.795,53l-1-26Z" fill="#ec3944"/>
  <path id="Caminho_10" data-name="Caminho 10" d="M48.295,40.5,46.795,15l-24,12,1,26Z" fill="#ec3944"/>
  <path id="Caminho_11" data-name="Caminho 11" d="M48.295,40.5,46.795,15l-24,12,1,26Z" fill="#ef7880"/>
  <path id="Caminho_12" data-name="Caminho 12" d="M22.795,27l24-12L24.295,0l-24,13.5Z" fill="#ef7880"/>
  <path id="Caminho_13" data-name="Caminho 13" d="M48.295,40.5,46.795,15l-24,12,1,26Z" fill="#f7626b"/>
  <path id="Caminho_14" data-name="Caminho 14" d="M33.883,26.585a11.293,11.293,0,0,1-.366,2.886,11.553,11.553,0,0,1-1.011,2.607,11.813,11.813,0,0,1-1.582,2.271A10.957,10.957,0,0,1,28.9,36.136a7.559,7.559,0,0,0,.513,1.289,4.843,4.843,0,0,0,.747,1.069,3.423,3.423,0,0,0,.967.733,2.52,2.52,0,0,0,1.143.264,2.127,2.127,0,0,0,.542-.073,1.555,1.555,0,0,0,.527-.22.518.518,0,0,1,.19-.1.863.863,0,0,1,.205-.029.78.78,0,0,1,.527.205.71.71,0,0,1,.249.557.748.748,0,0,1-.352.659,3.809,3.809,0,0,1-.908.41,3.368,3.368,0,0,1-.981.146,3.884,3.884,0,0,1-1.582-.322,4.785,4.785,0,0,1-1.333-.879,6.251,6.251,0,0,1-1.069-1.318,8.725,8.725,0,0,1-.762-1.611,10.351,10.351,0,0,1-2.065.718,9.027,9.027,0,0,1-2.2.264,9.7,9.7,0,0,1-2.812-.41,10.091,10.091,0,0,1-2.519-1.128A11.021,11.021,0,0,1,14.122,32.3a11.963,11.963,0,0,1-1.069-2.71,11.886,11.886,0,0,1,1.069-8.7A11.018,11.018,0,0,1,15.777,18.6a10.89,10.89,0,0,1,2.153-1.773,10.014,10.014,0,0,1,5.332-1.553,9.532,9.532,0,0,1,2.915.439,10.149,10.149,0,0,1,2.563,1.216,10.7,10.7,0,0,1,2.139,1.846,11.528,11.528,0,0,1,1.611,2.329,11.654,11.654,0,0,1,1.025,2.651A11.065,11.065,0,0,1,33.883,26.585Zm-1.523,0A8.8,8.8,0,0,0,32.1,24.5a11.345,11.345,0,0,0-.747-2.139,11.2,11.2,0,0,0-1.142-1.992,8.925,8.925,0,0,0-1.465-1.655,6.514,6.514,0,0,0-1.7-1.128,4.347,4.347,0,0,0-1.86-.425,6.736,6.736,0,0,0-2.329.381,6.531,6.531,0,0,0-1.86,1.04,6.839,6.839,0,0,0-1.406,1.538,9.661,9.661,0,0,0-1,1.919,11.513,11.513,0,0,0-.571,2.124,12.754,12.754,0,0,0-.191,2.183,21.47,21.47,0,0,0,.132,2.373,14.352,14.352,0,0,0,.469,2.285,11.45,11.45,0,0,0,.85,2.036,6.655,6.655,0,0,0,1.289,1.641A5.726,5.726,0,0,0,22.34,35.77a6.435,6.435,0,0,0,2.329.4A5.011,5.011,0,0,0,25.943,36a6.8,6.8,0,0,0,1.216-.469,3.708,3.708,0,0,0-1.011-1.7,2.483,2.483,0,0,0-1.714-.586,3.437,3.437,0,0,0-.645.059q-.293.059-.542.132a4.2,4.2,0,0,0-.527.176.729.729,0,0,1-.322.088.787.787,0,0,1-.527-.22.755.755,0,0,1-.249-.571.744.744,0,0,1,.117-.4.779.779,0,0,1,.322-.293,1.336,1.336,0,0,1,.205-.088,4.132,4.132,0,0,1,.527-.176q.322-.088.747-.161a5.258,5.258,0,0,1,.894-.073,3.944,3.944,0,0,1,2.476.776,4.934,4.934,0,0,1,1.582,2.183,9.565,9.565,0,0,0,1.553-1.641,11.4,11.4,0,0,0,1.23-2.007,11.273,11.273,0,0,0,.791-2.212A9,9,0,0,0,32.359,26.585Z" fill="#fff"/>
</svg>
